Hanif_Shallow_2_5_grf.mot
version=1
nRows=58
nColumns=19
inDegrees=yes
endheader
time	right_ground_force_vx	right_ground_force_vy	right_ground_force_vz	right_ground_force_px	right_ground_force_py	right_ground_force_pz	right_ground_torque_x	right_ground_torque_y	right_ground_torque_z	left_ground_force_vx	left_ground_force_vy	left_ground_force_vz	left_ground_force_px	left_ground_force_py	left_ground_force_pz	left_ground_torque_x	left_ground_torque_y	left_ground_torque_z
0.000000	2.715270	259.713000	54.803300	0.216859	0.000000	-1.443150	-16.319400	-0.313992	4.471060	-5.401140	283.318000	-56.048700	0.238844	0.000000	-0.965323	17.707600	-0.126442	11.527500
0.005000	2.618580	258.521000	55.560100	0.217068	0.000000	-1.443450	-16.164200	-0.261688	4.524690	-5.312220	281.798000	-55.708500	0.239096	0.000000	-0.965865	17.765700	-0.164814	11.546300
0.010000	2.876840	258.786000	55.307800	0.216586	0.000000	-1.443140	-16.262600	-0.211033	4.404410	-5.399070	283.337000	-56.075700	0.238431	0.000000	-0.965444	17.743200	-0.156963	11.413300
0.015000	2.757430	256.911000	55.644100	0.216793	0.000000	-1.443020	-16.172400	-0.142362	4.448240	-5.218700	282.036000	-55.779700	0.238529	0.000000	-0.965513	17.679200	-0.143076	11.384500
0.020000	2.862240	258.269000	55.295900	0.216214	0.000000	-1.442940	-16.281600	-0.238232	4.289820	-5.049340	283.127000	-55.865900	0.238408	0.000000	-0.965961	17.872800	-0.166365	11.393300
0.025000	2.740170	259.553000	55.664500	0.216610	0.000000	-1.442560	-16.461500	-0.222659	4.424420	-5.325390	282.242000	-55.714400	0.238458	0.000000	-0.965631	17.727400	-0.185986	11.379900
0.030000	2.853390	258.075000	55.225000	0.216864	0.000000	-1.443280	-16.181500	-0.242856	4.461270	-4.918320	282.464000	-56.137800	0.238165	0.000000	-0.965914	17.816400	-0.166073	11.300600
0.035000	2.453340	258.128000	55.056100	0.217084	0.000000	-1.443450	-16.140900	-0.230534	4.528580	-5.340540	282.458000	-55.480200	0.238370	0.000000	-0.964649	17.463000	-0.163625	11.352900
0.040000	2.144530	258.624000	55.283700	0.216243	0.000000	-1.442200	-16.496400	-0.232132	4.314010	-5.099210	282.757000	-56.130200	0.238497	0.000000	-0.965584	17.744000	-0.184043	11.414000
0.045000	2.259760	258.585000	55.206500	0.215852	0.000000	-1.443150	-16.247700	-0.192854	4.214450	-5.021670	281.999000	-55.817000	0.238432	0.000000	-0.965105	17.561300	-0.224165	11.368400
0.050000	2.638130	259.172000	55.171800	0.216454	0.000000	-1.442650	-16.414000	-0.214216	4.376380	-4.976250	284.104000	-55.677000	0.238169	0.000000	-0.965467	17.792200	-0.143241	11.349500
0.055000	2.350530	258.524000	54.846300	0.216374	0.000000	-1.441910	-16.563400	-0.174938	4.354520	-5.261490	282.550000	-55.924700	0.238800	0.000000	-0.965117	17.601800	-0.228754	11.502400
0.060000	2.693490	258.608000	55.236400	0.217023	0.000000	-1.443030	-16.278200	-0.227851	4.518240	-4.981370	284.228000	-56.415000	0.238694	0.000000	-0.964763	17.602000	-0.206442	11.533300
0.065000	2.943120	258.425000	55.411900	0.216838	0.000000	-1.441950	-16.545600	-0.219022	4.463950	-4.901070	283.722000	-55.635200	0.238719	0.000000	-0.965143	17.676500	-0.155473	11.498100
0.070000	2.820950	259.276000	54.839900	0.216364	0.000000	-1.443550	-16.186400	-0.154667	4.362610	-4.867030	283.494000	-56.251600	0.237961	0.000000	-0.965751	17.834400	-0.170041	11.279700
0.075000	3.078870	258.905000	55.106400	0.216916	0.000000	-1.443900	-16.073100	-0.254226	4.483160	-4.725440	284.508000	-55.825600	0.238149	0.000000	-0.965546	17.838300	-0.189977	11.367000
0.080000	3.144290	257.258000	55.279000	0.216329	0.000000	-1.441970	-16.467200	-0.209306	4.306470	-4.718740	283.358000	-56.116900	0.237884	0.000000	-0.965508	17.755700	-0.198803	11.253600
0.085000	2.940040	257.662000	54.680400	0.215986	0.000000	-1.442360	-16.393600	-0.280978	4.205090	-5.179610	281.768000	-55.742800	0.238310	0.000000	-0.965897	17.771200	-0.193656	11.319800
0.090000	3.169590	258.358000	55.148200	0.216607	0.000000	-1.442820	-16.315900	-0.209823	4.398530	-5.086880	282.566000	-55.848200	0.237930	0.000000	-0.965828	17.800600	-0.201862	11.239400
0.095000	2.740250	257.770000	55.113400	0.216546	0.000000	-1.443710	-16.050500	-0.168425	4.387660	-4.919130	282.353000	-56.201100	0.237742	0.000000	-0.965304	17.636700	-0.156116	11.170900
0.100000	2.679130	255.982000	55.107400	0.216670	0.000000	-1.442540	-16.238200	-0.162702	4.393450	-5.173880	282.730000	-55.916700	0.237736	0.000000	-0.964697	17.491700	-0.194354	11.187900
0.105000	3.059830	257.685000	55.145000	0.216956	0.000000	-1.443150	-16.191200	-0.320646	4.459690	-4.965750	284.365000	-55.986300	0.237191	0.000000	-0.964790	17.617100	-0.262741	11.097800
0.110000	2.701290	257.416000	54.896100	0.216075	0.000000	-1.442930	-16.228800	-0.207352	4.245580	-4.772000	283.554000	-55.433900	0.238029	0.000000	-0.965468	17.756700	-0.187729	11.290300
0.115000	2.658290	256.628000	54.808400	0.216333	0.000000	-1.442180	-16.374700	-0.279453	4.286790	-5.075480	282.855000	-55.528200	0.237886	0.000000	-0.964125	17.336400	-0.200654	11.229600
0.120000	2.965590	257.790000	54.889000	0.217538	0.000000	-1.441760	-16.553200	-0.248548	4.632610	-5.008330	283.577000	-55.945400	0.237795	0.000000	-0.964913	17.602500	-0.141593	11.224000
0.125000	3.002680	257.493000	54.974000	0.217007	0.000000	-1.441980	-16.478900	-0.292215	4.475310	-5.037600	283.279000	-55.232600	0.238210	0.000000	-0.965708	17.810400	-0.190126	11.334200
0.130000	2.346030	257.711000	55.025000	0.216807	0.000000	-1.442840	-16.271700	-0.264133	4.440700	-5.037750	282.223000	-55.601600	0.238177	0.000000	-0.965387	17.654100	-0.198827	11.293700
0.135000	2.560690	258.912000	54.961800	0.216925	0.000000	-1.442360	-16.472900	-0.253037	4.491280	-4.895740	283.703000	-55.761000	0.237850	0.000000	-0.964749	17.564200	-0.240209	11.259600
0.140000	2.468330	258.557000	55.053800	0.217220	0.000000	-1.441810	-16.592700	-0.266917	4.563550	-4.956050	283.769000	-55.540500	0.238470	0.000000	-0.965323	17.730200	-0.114665	11.417600
0.145000	2.236570	256.769000	54.856100	0.217943	0.000000	-1.441320	-16.603600	-0.296765	4.723080	-5.381970	282.011000	-55.803900	0.237865	0.000000	-0.965518	17.681200	-0.195733	11.201600
0.150000	2.031610	257.893000	54.748000	0.217872	0.000000	-1.441850	-16.538300	-0.285693	4.728400	-4.953660	282.361000	-55.890100	0.238282	0.000000	-0.965497	17.693100	-0.192939	11.332300
0.155000	2.040120	257.844000	54.978300	0.218023	0.000000	-1.442140	-16.462600	-0.347226	4.756550	-4.896100	282.671000	-55.634100	0.238717	0.000000	-0.965450	17.698700	-0.195408	11.466700
0.160000	1.810960	257.461000	54.797100	0.218499	0.000000	-1.441440	-16.617500	-0.343988	4.880350	-4.959430	283.268000	-55.889500	0.238235	0.000000	-0.964783	17.548000	-0.227901	11.357900
0.165000	2.084870	257.611000	54.060800	0.218156	0.000000	-1.441230	-16.680100	-0.331671	4.785270	-5.295490	282.751000	-55.766200	0.239040	0.000000	-0.965937	17.845900	-0.185174	11.570300
0.170000	1.641600	257.336000	54.827900	0.217897	0.000000	-1.440720	-16.796300	-0.338202	4.719750	-5.089960	284.264000	-55.840400	0.238495	0.000000	-0.964912	17.647000	-0.194773	11.465300
0.175000	1.773800	258.623000	54.419900	0.217950	0.000000	-1.441370	-16.712100	-0.333514	4.753660	-5.129100	284.141000	-55.772500	0.239086	0.000000	-0.966371	18.053700	-0.120875	11.621300
0.180000	2.021470	257.255000	54.319900	0.218158	0.000000	-1.441370	-16.622500	-0.403617	4.766660	-5.071910	283.644000	-55.756200	0.239279	0.000000	-0.965833	17.870600	-0.197887	11.673300
0.185000	1.849470	256.167000	54.960100	0.219238	0.000000	-1.441020	-16.642700	-0.400919	5.043100	-5.256460	283.355000	-55.390700	0.239147	0.000000	-0.966082	17.922500	-0.086604	11.598000
0.190000	2.010250	257.206000	54.383100	0.218917	0.000000	-1.441840	-16.497500	-0.406610	4.969880	-4.764770	283.892000	-55.814600	0.238839	0.000000	-0.965330	17.738700	-0.145607	11.539300
0.195000	2.017510	257.077000	54.226500	0.219215	0.000000	-1.440900	-16.730100	-0.352762	5.057280	-5.134700	282.751000	-55.422800	0.239289	0.000000	-0.965982	17.856500	-0.162597	11.630900
0.200000	1.752610	257.102000	54.388000	0.219627	0.000000	-1.441390	-16.608900	-0.411403	5.161060	-5.061950	283.886000	-55.613100	0.238424	0.000000	-0.965648	17.830400	-0.093735	11.407200
0.205000	1.598540	256.291000	54.666700	0.219665	0.000000	-1.441170	-16.611600	-0.468904	5.147180	-5.143740	283.716000	-55.616600	0.239169	0.000000	-0.965943	17.905900	-0.135413	11.629800
0.210000	1.752820	255.178000	53.918500	0.220078	0.000000	-1.441780	-16.385300	-0.548572	5.212520	-4.967030	284.341000	-55.232600	0.239149	0.000000	-0.965906	17.932200	-0.130085	11.637600
0.215000	1.734760	255.344000	54.005500	0.219820	0.000000	-1.440660	-16.681200	-0.464781	5.165130	-5.627970	284.137000	-55.456500	0.238761	0.000000	-0.965662	17.857000	-0.147838	11.530700
0.220000	1.164850	255.017000	53.948400	0.220345	0.000000	-1.441240	-16.513600	-0.605989	5.276370	-5.296020	285.741000	-55.457300	0.238362	0.000000	-0.966007	18.050300	-0.060845	11.450900
0.225000	1.759790	255.097000	53.867000	0.219575	0.000000	-1.440350	-16.742700	-0.479802	5.090600	-6.235370	287.387000	-55.332500	0.238201	0.000000	-0.965667	18.067500	-0.164229	11.492400
0.230000	0.977541	253.862000	53.257500	0.220369	0.000000	-1.440140	-16.716300	-0.533049	5.273130	-5.654640	290.807000	-55.932000	0.237820	0.000000	-0.965172	18.129100	-0.051170	11.482700
0.235000	0.564711	254.517000	53.077900	0.221263	0.000000	-1.440660	-16.629600	-0.606389	5.513000	-6.198660	289.513000	-56.444700	0.238892	0.000000	-0.965762	18.226900	-0.054600	11.774400
0.240000	1.193960	253.427000	52.721500	0.221257	0.000000	-1.440120	-16.694700	-0.620970	5.474740	-6.395040	292.378000	-56.756400	0.238431	0.000000	-0.965615	18.362900	0.031134	11.731500
0.245000	0.894863	253.743000	53.201700	0.222373	0.000000	-1.438880	-17.029500	-0.668864	5.773830	-6.163320	294.446000	-57.205300	0.238179	0.000000	-0.965984	18.598600	0.036023	11.734400
0.250000	0.855253	253.634000	52.308000	0.222073	0.000000	-1.439500	-16.864900	-0.616013	5.697880	-5.892990	298.165000	-57.770300	0.238637	0.000000	-0.965355	18.642400	0.052526	12.013500
0.255000	0.747262	253.019000	52.247200	0.222481	0.000000	-1.438940	-16.965000	-0.579309	5.800720	-6.143210	297.502000	-57.853300	0.238633	0.000000	-0.965125	18.536700	-0.012305	12.004800
0.260000	0.695614	250.044000	51.832800	0.223130	0.000000	-1.438520	-16.871900	-0.736105	5.869850	-5.665260	297.796000	-57.755400	0.239054	0.000000	-0.965244	18.583200	0.121167	12.112600
0.265000	0.373213	248.781000	51.289600	0.223510	0.000000	-1.436880	-17.194500	-0.696272	5.948550	-6.185520	298.046000	-58.098600	0.238072	0.000000	-0.965509	18.682100	0.121559	11.830200
0.270000	-0.196549	248.737000	50.882400	0.224276	0.000000	-1.437020	-17.157300	-0.784662	6.133200	-5.730100	297.490000	-57.684800	0.238226	0.000000	-0.965433	18.622500	0.004547	11.868000
0.275000	-0.702415	247.264000	50.100200	0.224842	0.000000	-1.437440	-16.955000	-0.806672	6.240990	-5.917490	298.080000	-57.865300	0.237922	0.000000	-0.965491	18.678800	-0.032721	11.808100
0.280000	-0.920580	245.653000	49.044800	0.224861	0.000000	-1.437410	-16.851100	-0.883020	6.186880	-5.656150	297.565000	-57.219100	0.238291	0.000000	-0.965926	18.773300	-0.023157	11.888100
0.285000	-1.683900	245.235000	48.367600	0.224789	0.000000	-1.436890	-16.951600	-0.927824	6.155610	-5.439300	299.345000	-57.173500	0.237576	0.000000	-0.964983	18.600200	-0.037083	11.729800
